<svg version="1.2" baseProfile="tiny-ps" xmlns="http://www.w3.org/2000/svg" viewBox="0 0 1004 287" width="1004" height="287">
	<title>Mapin_logo-ai</title>
	<style>
		tspan { white-space:pre }
		.shp0 { fill: #ffffff } 
		.shp1 { fill: #01173a } 
	</style>
	<g id="Layer 1">
		<g id="&lt;Group&gt;">
			<path id="&lt;Compound Path&gt;" class="shp0" d="M188.81 779.47C197.07 784.92 203.66 792.08 208.58 800.95C213.5 809.82 215.96 819.53 215.96 830.07L215.96 909.4L188.81 909.4L188.81 880.94L188.81 830.07C188.81 825.5 187.93 821.2 186.18 817.16C184.42 813.12 182 809.56 178.93 806.48C175.86 803.41 172.3 800.99 168.26 799.24C164.21 797.48 159.91 796.6 155.34 796.6C150.77 796.6 146.42 797.48 142.3 799.24C138.17 800.99 134.56 803.41 131.49 806.48C128.42 809.56 126 813.12 124.24 817.16C122.49 821.2 121.61 825.5 121.61 830.07L121.61 880.94L121.61 909.4L94.46 909.4L94.46 880.94L94.46 830.07C94.46 825.5 93.58 821.2 91.83 817.16C90.07 813.12 87.65 809.56 84.58 806.48C81.5 803.41 77.95 800.99 73.91 799.24C69.86 797.48 65.56 796.6 60.99 796.6C56.42 796.6 52.07 797.48 47.95 799.24C43.82 800.99 40.21 803.41 37.14 806.48C34.06 809.56 31.65 813.12 29.89 817.16C28.13 821.2 27.26 825.5 27.26 830.07L27.26 880.94L27.26 909.4L0.11 909.4L0.11 830.07L0.11 769.45L27.26 769.45L27.26 779.47C32.17 776.31 37.49 773.85 43.2 772.09C48.91 770.33 54.84 769.45 60.99 769.45C67.14 769.45 73.07 770.33 78.78 772.09C84.49 773.85 89.72 776.31 94.46 779.47C99.56 782.81 104.12 787.02 108.17 792.12C112.03 787.2 116.51 782.99 121.61 779.47C126.53 776.31 131.84 773.85 137.55 772.09C143.26 770.33 149.19 769.45 155.34 769.45C161.49 769.45 167.42 770.33 173.13 772.09C178.84 773.85 184.07 776.31 188.81 779.47Z" />
			<path id="&lt;Compound Path&gt;" fill-rule="evenodd" class="shp0" d="M370.8 770.24C380.44 770.24 389.51 772.09 398.02 775.78C406.53 779.47 413.98 784.48 420.38 790.8C426.78 797.13 431.83 804.6 435.51 813.2C439.19 821.81 441.03 830.95 441.03 840.61L441.03 908.87L413.89 908.87L413.89 896.1C407.91 900.62 401.32 904.19 394.12 906.8C386.91 909.41 379.18 910.72 370.93 910.72C361.26 910.72 352.17 908.87 343.65 905.18C335.13 901.49 327.7 896.49 321.38 890.16C315.05 883.84 310.05 876.42 306.36 867.89C302.67 859.37 300.82 850.28 300.82 840.61C300.82 830.95 302.66 821.81 306.35 813.2C310.03 804.6 315.03 797.13 321.34 790.8C327.65 784.48 335.06 779.47 343.57 775.78C352.08 772.09 361.15 770.24 370.8 770.24ZM370.93 883.57C376.9 883.57 382.48 882.42 387.66 880.12C392.84 877.83 397.37 874.73 401.24 870.84C405.1 866.96 408.18 862.4 410.46 857.19C412.74 851.97 413.89 846.45 413.89 840.61C413.89 834.6 412.74 828.99 410.46 823.78C408.18 818.56 405.1 814.01 401.24 810.12C397.37 806.23 392.84 803.13 387.66 800.84C382.48 798.54 376.9 797.39 370.93 797.39C364.95 797.39 359.37 798.54 354.19 800.84C349.01 803.13 344.48 806.23 340.62 810.12C336.75 814.01 333.68 818.56 331.4 823.78C329.11 828.99 327.97 834.6 327.97 840.61C327.97 846.45 329.11 851.97 331.4 857.19C333.68 862.4 336.75 866.96 340.62 870.84C344.48 874.73 349.01 877.83 354.19 880.12C359.37 882.42 364.95 883.57 370.93 883.57Z" />
			<path id="&lt;Compound Path&gt;" class="shp0" d="M762.3 755.75L762.3 728.6L789.44 728.6L789.44 755.75L762.3 755.75ZM789.44 769.98L789.44 909.14L762.3 909.14L762.3 769.98L789.44 769.98Z" />
			<path id="&lt;Compound Path&gt;" class="shp0" d="M976.3 779.2C984.65 784.83 991.26 792.08 996.14 800.95C1001.01 809.82 1003.45 819.53 1003.45 830.07L1003.45 909.4L976.3 909.4L976.3 880.67L976.3 830.07C976.3 825.5 975.42 821.16 973.65 817.02C971.89 812.9 969.47 809.29 966.38 806.22C963.29 803.15 959.72 800.73 955.66 798.97C951.61 797.22 947.29 796.34 942.7 796.34C938.11 796.34 933.74 797.22 929.6 798.97C925.46 800.73 921.88 803.15 918.89 806.22C915.89 809.29 913.5 812.9 911.74 817.02C909.98 821.16 909.1 825.5 909.1 830.07L909.1 880.67L909.1 909.4L881.95 909.4L881.95 830.07L881.95 769.19L909.1 769.19L909.3 779.2C914.05 776.04 919.28 773.58 925 771.83C930.71 770.07 936.65 769.19 942.8 769.19C948.96 769.19 954.89 770.07 960.61 771.83C966.33 773.58 971.55 776.04 976.3 779.2Z" />
		</g>
		<path id="&lt;Compound Path&gt;" fill-rule="evenodd" class="shp0" d="M524.33 839.56C524.33 829.19 526.3 819.33 530.18 810.25C534.04 801.21 539.44 793.17 546.24 786.37C553.03 779.58 561.1 774.14 570.22 770.19C579.4 766.22 589.31 764.2 599.69 764.2C610.07 764.2 619.95 766.22 629.05 770.2C638.07 774.15 646.09 779.59 652.87 786.37C659.66 793.16 665.1 801.17 669.05 810.2C673.03 819.3 675.05 829.17 675.05 839.56C675.05 849.94 673.03 859.82 669.05 868.92C665.1 877.94 659.66 885.96 652.87 892.74L524.33 1015.6L524.33 839.56ZM599.69 802.38C594.52 802.38 589.63 803.37 585.18 805.34C580.65 807.33 576.64 810.05 573.28 813.41C569.94 816.76 567.28 820.74 565.37 825.24C563.47 829.71 562.51 834.53 562.51 839.56L562.51 839.82C562.51 844.83 563.5 849.62 565.47 854.07C567.46 858.6 570.18 862.6 573.54 865.96C576.89 869.31 580.86 871.97 585.37 873.88C589.84 875.78 594.65 876.74 599.69 876.74C604.69 876.74 609.49 875.74 613.94 873.78C618.46 871.79 622.47 869.07 625.84 865.7C629.2 862.34 631.91 858.34 633.91 853.81C635.87 849.35 636.87 844.56 636.87 839.56C636.87 834.56 635.87 829.77 633.91 825.31C631.91 820.78 629.2 816.78 625.83 813.41C622.47 810.05 618.46 807.33 613.93 805.34C609.48 803.37 604.68 802.38 599.69 802.38Z" />
		<g id="&lt;Group&gt;">
			<path id="&lt;Compound Path&gt;" class="shp1" d="M188.81 51C197.07 56.45 203.66 63.61 208.58 72.48C213.5 81.35 215.96 91.06 215.96 101.6L215.96 180.93L188.81 180.93L188.81 152.47L188.81 101.6C188.81 97.03 187.93 92.73 186.18 88.69C184.42 84.65 182 81.09 178.93 78.01C175.86 74.94 172.3 72.52 168.26 70.77C164.21 69.01 159.91 68.13 155.34 68.13C150.77 68.13 146.42 69.01 142.3 70.77C138.17 72.52 134.56 74.94 131.49 78.01C128.42 81.09 126 84.65 124.24 88.69C122.49 92.73 121.61 97.03 121.61 101.6L121.61 152.47L121.61 180.93L94.46 180.93L94.46 152.47L94.46 101.6C94.46 97.03 93.58 92.73 91.83 88.69C90.07 84.65 87.65 81.09 84.58 78.01C81.5 74.94 77.95 72.52 73.91 70.77C69.86 69.01 65.56 68.13 60.99 68.13C56.42 68.13 52.07 69.01 47.95 70.77C43.82 72.52 40.21 74.94 37.14 78.01C34.06 81.09 31.65 84.65 29.89 88.69C28.13 92.73 27.26 97.03 27.26 101.6L27.26 152.47L27.26 180.93L0.11 180.93L0.11 101.6L0.11 40.98L27.26 40.98L27.26 51C32.17 47.84 37.49 45.38 43.2 43.62C48.91 41.87 54.84 40.98 60.99 40.98C67.14 40.98 73.07 41.87 78.78 43.62C84.49 45.38 89.72 47.84 94.46 51C99.56 54.34 104.12 58.56 108.17 63.65C112.03 58.73 116.51 54.52 121.61 51C126.53 47.84 131.84 45.38 137.55 43.62C143.26 41.87 149.19 40.98 155.34 40.98C161.49 40.98 167.42 41.87 173.13 43.62C178.84 45.38 184.07 47.84 188.81 51Z" />
			<path id="&lt;Compound Path&gt;" fill-rule="evenodd" class="shp1" d="M370.8 41.77C380.44 41.77 389.51 43.62 398.02 47.31C406.53 51 413.98 56.01 420.38 62.33C426.78 68.66 431.83 76.13 435.51 84.73C439.19 93.35 441.03 102.48 441.03 112.14L441.03 180.4L413.89 180.4L413.89 167.63C407.91 172.16 401.32 175.72 394.12 178.33C386.91 180.94 379.18 182.25 370.93 182.25C361.26 182.25 352.17 180.4 343.65 176.71C335.13 173.02 327.7 168.02 321.38 161.69C315.05 155.37 310.05 147.95 306.36 139.42C302.67 130.9 300.82 121.81 300.82 112.14C300.82 102.48 302.66 93.35 306.35 84.73C310.03 76.13 315.03 68.66 321.34 62.33C327.65 56.01 335.06 51 343.57 47.31C352.08 43.62 361.15 41.77 370.8 41.77ZM370.93 155.1C376.9 155.1 382.48 153.95 387.66 151.66C392.84 149.36 397.37 146.27 401.24 142.37C405.1 138.49 408.18 133.93 410.46 128.72C412.74 123.51 413.89 117.98 413.89 112.14C413.89 106.14 412.74 100.52 410.46 95.31C408.18 90.1 405.1 85.54 401.24 81.65C397.37 77.76 392.84 74.67 387.66 72.37C382.48 70.07 376.9 68.92 370.93 68.92C364.95 68.92 359.37 70.07 354.19 72.37C349.01 74.67 344.48 77.76 340.62 81.65C336.75 85.54 333.68 90.1 331.4 95.31C329.11 100.52 327.97 106.14 327.97 112.14C327.97 117.98 329.11 123.51 331.4 128.72C333.68 133.93 336.75 138.49 340.62 142.37C344.48 146.27 349.01 149.36 354.19 151.66C359.37 153.95 364.95 155.1 370.93 155.1Z" />
			<path id="&lt;Compound Path&gt;" class="shp1" d="M762.3 27.28L762.3 0.13L789.44 0.13L789.44 27.28L762.3 27.28ZM789.44 41.51L789.44 180.67L762.3 180.67L762.3 41.51L789.44 41.51Z" />
			<path id="&lt;Compound Path&gt;" class="shp1" d="M976.3 50.74C984.65 56.36 991.26 63.61 996.14 72.48C1001.01 81.35 1003.45 91.06 1003.45 101.6L1003.45 180.93L976.3 180.93L976.3 152.2L976.3 101.6C976.3 97.03 975.42 92.69 973.65 88.56C971.89 84.43 969.47 80.83 966.38 77.75C963.29 74.68 959.72 72.26 955.66 70.5C951.61 68.75 947.29 67.87 942.7 67.87C938.11 67.87 933.74 68.75 929.6 70.5C925.46 72.26 921.88 74.68 918.89 77.75C915.89 80.83 913.5 84.43 911.74 88.56C909.98 92.69 909.1 97.03 909.1 101.6L909.1 152.2L909.1 180.93L881.95 180.93L881.95 101.6L881.95 40.72L909.1 40.72L909.3 50.74C914.05 47.57 919.28 45.11 925 43.36C930.71 41.6 936.65 40.72 942.8 40.72C948.96 40.72 954.89 41.6 960.61 43.36C966.33 45.11 971.55 47.57 976.3 50.74Z" />
		</g>
		<path id="&lt;Compound Path&gt;" fill-rule="evenodd" class="shp1" d="M524.33 111.09C524.33 100.72 526.3 90.86 530.18 81.78C534.04 72.74 539.44 64.7 546.24 57.9C553.03 51.11 561.1 45.67 570.22 41.72C579.4 37.75 589.31 35.73 599.69 35.73C610.07 35.73 619.95 37.75 629.05 41.73C638.07 45.68 646.09 51.12 652.87 57.9C659.66 64.69 665.1 72.71 669.05 81.73C673.03 90.83 675.05 100.7 675.05 111.09C675.05 121.47 673.03 131.35 669.05 140.45C665.1 149.47 659.66 157.49 652.87 164.27L524.33 287.13L524.33 111.09ZM599.69 73.91C594.52 73.91 589.63 74.91 585.18 76.87C580.65 78.87 576.64 81.58 573.28 84.95C569.94 88.29 567.28 92.27 565.37 96.77C563.47 101.24 562.51 106.06 562.51 111.09L562.51 111.35C562.51 116.36 563.5 121.15 565.47 125.6C567.46 130.13 570.18 134.14 573.54 137.5C576.89 140.84 580.86 143.5 585.37 145.41C589.84 147.31 594.65 148.27 599.69 148.27C604.69 148.27 609.49 147.27 613.94 145.31C618.46 143.32 622.47 140.6 625.84 137.23C629.2 133.87 631.91 129.87 633.91 125.34C635.87 120.88 636.87 116.09 636.87 111.09C636.87 106.1 635.87 101.3 633.91 96.84C631.91 92.31 629.2 88.31 625.83 84.94C622.47 81.58 618.46 78.87 613.93 76.87C609.48 74.91 604.68 73.91 599.69 73.91Z" />
	</g>
</svg>